STARTFONT 2.1
COMMENT
COMMENT Converted from OpenType font "chikita.ttf" by "otf2bdf 3.0".
COMMENT
FONT -FreeType-Chikita-Medium-R-Normal--14-100-100-100-P-80-ISO10646-1
SIZE 10 100 100
FONTBOUNDINGBOX 16 18 0 -4
STARTPROPERTIES 19
FOUNDRY "FreeType"
FAMILY_NAME "Chikita"
WEIGHT_NAME "Medium"
SLANT "R"
SETWIDTH_NAME "Normal"
ADD_STYLE_NAME ""
PIXEL_SIZE 14
POINT_SIZE 100
RESOLUTION_X 100
RESOLUTION_Y 100
SPACING "P"
AVERAGE_WIDTH 80
CHARSET_REGISTRY "ISO10646"
CHARSET_ENCODING "1"
FONT_ASCENT 14
FONT_DESCENT 3
COPYRIGHT "Copyright southernmedia 2008  Chikita is based on pixelspace 5x5 by David Chiu (http://fontstruct.com/fontstructors/skyleth)"
_OTF_FONTFILE "chikita.ttf"
_OTF_PSNAME "Chikita"
ENDPROPERTIES
CHARS 260
STARTCHAR 0020
ENCODING 32
SWIDTH 216 0
DWIDTH 3 0
BBX 0 0 0 0
BITMAP
ENDCHAR
STARTCHAR 0021
ENCODING 33
SWIDTH 216 0
DWIDTH 3 0
BBX 2 12 0 -2
BITMAP
C0
C0
C0
C0
C0
C0
C0
C0
C0
00
C0
C0
ENDCHAR
STARTCHAR 0022
ENCODING 34
SWIDTH 504 0
DWIDTH 7 0
BBX 5 3 0 7
BITMAP
D8
D8
D8
ENDCHAR
STARTCHAR 0023
ENCODING 35
SWIDTH 792 0
DWIDTH 11 0
BBX 9 9 0 0
BITMAP
3200
3200
FF80
FF80
3200
FF80
FF80
3200
3200
ENDCHAR
STARTCHAR 0024
ENCODING 36
SWIDTH 720 0
DWIDTH 10 0
BBX 9 13 0 -2
BITMAP
1800
1800
3F80
3F80
D800
D800
3E00
1980
1980
FE00
FE00
1800
1800
ENDCHAR
STARTCHAR 0025
ENCODING 37
SWIDTH 720 0
DWIDTH 10 0
BBX 9 9 0 0
BITMAP
F180
F180
F600
F600
0800
3780
3780
C780
C780
ENDCHAR
STARTCHAR 0026
ENCODING 38
SWIDTH 720 0
DWIDTH 10 0
BBX 9 9 0 0
BITMAP
0800
0800
3600
3600
3980
C600
C600
3980
3980
ENDCHAR
STARTCHAR 0027
ENCODING 39
SWIDTH 216 0
DWIDTH 3 0
BBX 2 3 0 7
BITMAP
C0
C0
C0
ENDCHAR
STARTCHAR 0028
ENCODING 40
SWIDTH 504 0
DWIDTH 7 0
BBX 5 13 0 -2
BITMAP
08
08
30
30
C0
C0
C0
C0
C0
30
30
08
08
ENDCHAR
STARTCHAR 0029
ENCODING 41
SWIDTH 504 0
DWIDTH 7 0
BBX 5 13 0 -2
BITMAP
C0
C0
30
30
08
08
08
08
08
30
30
C0
C0
ENDCHAR
STARTCHAR 002A
ENCODING 42
SWIDTH 648 0
DWIDTH 9 0
BBX 5 5 2 2
BITMAP
C8
C8
30
C8
C8
ENDCHAR
STARTCHAR 002B
ENCODING 43
SWIDTH 792 0
DWIDTH 11 0
BBX 9 9 0 0
BITMAP
1800
1800
1800
1800
FF80
FF80
1800
1800
1800
ENDCHAR
STARTCHAR 002C
ENCODING 44
SWIDTH 360 0
DWIDTH 5 0
BBX 4 4 0 -2
BITMAP
30
30
C0
C0
ENDCHAR
STARTCHAR 002D
ENCODING 45
SWIDTH 792 0
DWIDTH 11 0
BBX 9 2 0 4
BITMAP
FF80
FF80
ENDCHAR
STARTCHAR 002E
ENCODING 46
SWIDTH 216 0
DWIDTH 3 0
BBX 2 2 0 0
BITMAP
C0
C0
ENDCHAR
STARTCHAR 002F
ENCODING 47
SWIDTH 648 0
DWIDTH 9 0
BBX 5 9 2 0
BITMAP
08
08
08
00
30
C0
C0
C0
C0
ENDCHAR
STARTCHAR 0030
ENCODING 48
SWIDTH 648 0
DWIDTH 9 0
BBX 7 9 0 0
BITMAP
38
38
C6
C6
C6
C6
C6
38
38
ENDCHAR
STARTCHAR 0031
ENCODING 49
SWIDTH 360 0
DWIDTH 5 0
BBX 4 9 0 0
BITMAP
30
30
F0
F0
30
30
30
30
30
ENDCHAR
STARTCHAR 0032
ENCODING 50
SWIDTH 720 0
DWIDTH 10 0
BBX 9 9 0 0
BITMAP
3E00
3E00
C180
C180
0E00
3E00
3000
FF80
FF80
ENDCHAR
STARTCHAR 0033
ENCODING 51
SWIDTH 720 0
DWIDTH 10 0
BBX 9 9 0 0
BITMAP
FE00
FE00
0180
0180
3E00
0180
0180
FE00
FE00
ENDCHAR
STARTCHAR 0034
ENCODING 52
SWIDTH 720 0
DWIDTH 10 0
BBX 9 9 0 0
BITMAP
0E00
0E00
3600
3600
C600
FF80
FF80
0600
0600
ENDCHAR
STARTCHAR 0035
ENCODING 53
SWIDTH 720 0
DWIDTH 10 0
BBX 9 9 0 0
BITMAP
FF80
FF80
C000
C000
FE00
0180
0180
FE00
FE00
ENDCHAR
STARTCHAR 0036
ENCODING 54
SWIDTH 720 0
DWIDTH 10 0
BBX 9 9 0 0
BITMAP
3F80
3F80
C000
C000
FE00
C180
C180
3E00
3E00
ENDCHAR
STARTCHAR 0037
ENCODING 55
SWIDTH 792 0
DWIDTH 11 0
BBX 9 9 0 0
BITMAP
FF80
FF80
0180
0180
0200
0C00
0C00
3000
3000
ENDCHAR
STARTCHAR 0038
ENCODING 56
SWIDTH 720 0
DWIDTH 10 0
BBX 9 9 0 0
BITMAP
3E00
3E00
C180
C180
3E00
C180
C180
3E00
3E00
ENDCHAR
STARTCHAR 0039
ENCODING 57
SWIDTH 720 0
DWIDTH 10 0
BBX 9 9 0 0
BITMAP
3E00
3E00
C180
C180
3F80
3F80
0180
FE00
FE00
ENDCHAR
STARTCHAR 003A
ENCODING 58
SWIDTH 216 0
DWIDTH 3 0
BBX 2 5 0 2
BITMAP
C0
C0
00
C0
C0
ENDCHAR
STARTCHAR 003B
ENCODING 59
SWIDTH 216 0
DWIDTH 3 0
BBX 2 7 0 0
BITMAP
C0
C0
00
C0
C0
C0
C0
ENDCHAR
STARTCHAR 003C
ENCODING 60
SWIDTH 720 0
DWIDTH 10 0
BBX 8 9 0 0
BITMAP
07
07
38
38
C0
38
38
07
07
ENDCHAR
STARTCHAR 003D
ENCODING 61
SWIDTH 792 0
DWIDTH 11 0
BBX 9 5 0 2
BITMAP
FF80
FF80
0000
FF80
FF80
ENDCHAR
STARTCHAR 003E
ENCODING 62
SWIDTH 792 0
DWIDTH 11 0
BBX 10 9 0 0
BITMAP
E000
E000
0E00
0E00
00C0
0E00
0E00
E000
E000
ENDCHAR
STARTCHAR 003F
ENCODING 63
SWIDTH 720 0
DWIDTH 10 0
BBX 9 13 0 -2
BITMAP
3E00
3E00
C180
C180
0600
0600
1800
1800
1800
1800
0000
1800
1800
ENDCHAR
STARTCHAR 0040
ENCODING 64
SWIDTH 1008 0
DWIDTH 14 0
BBX 12 13 0 -2
BITMAP
3FE0
3FE0
C010
C010
C790
C790
D990
DFF0
DFF0
C000
C000
3FE0
3FE0
ENDCHAR
STARTCHAR 0041
ENCODING 65
SWIDTH 720 0
DWIDTH 10 0
BBX 9 9 0 0
BITMAP
3E00
3E00
C180
C180
C180
FF80
FF80
C180
C180
ENDCHAR
STARTCHAR 0042
ENCODING 66
SWIDTH 720 0
DWIDTH 10 0
BBX 9 9 0 0
BITMAP
FE00
FE00
C180
C180
FE00
C180
C180
FE00
FE00
ENDCHAR
STARTCHAR 0043
ENCODING 67
SWIDTH 720 0
DWIDTH 10 0
BBX 9 9 0 0
BITMAP
3E00
3E00
C180
C180
C000
C180
C180
3E00
3E00
ENDCHAR
STARTCHAR 0044
ENCODING 68
SWIDTH 720 0
DWIDTH 10 0
BBX 9 9 0 0
BITMAP
FE00
FE00
C180
C180
C180
C180
C180
FE00
FE00
ENDCHAR
STARTCHAR 0045
ENCODING 69
SWIDTH 720 0
DWIDTH 10 0
BBX 9 9 0 0
BITMAP
FF80
FF80
C000
C000
FE00
FE00
C000
FF80
FF80
ENDCHAR
STARTCHAR 0046
ENCODING 70
SWIDTH 720 0
DWIDTH 10 0
BBX 9 9 0 0
BITMAP
FF80
FF80
C000
C000
FE00
FE00
C000
C000
C000
ENDCHAR
STARTCHAR 0047
ENCODING 71
SWIDTH 720 0
DWIDTH 10 0
BBX 9 9 0 0
BITMAP
3E00
3E00
C000
C000
CF80
CF80
C180
3E00
3E00
ENDCHAR
STARTCHAR 0048
ENCODING 72
SWIDTH 720 0
DWIDTH 10 0
BBX 9 9 0 0
BITMAP
C180
C180
C180
C180
FF80
FF80
C180
C180
C180
ENDCHAR
STARTCHAR 0049
ENCODING 73
SWIDTH 504 0
DWIDTH 7 0
BBX 5 9 0 0
BITMAP
F8
F8
30
30
30
30
30
F8
F8
ENDCHAR
STARTCHAR 004A
ENCODING 74
SWIDTH 720 0
DWIDTH 10 0
BBX 9 9 0 0
BITMAP
0180
0180
0180
0180
0180
C180
C180
3E00
3E00
ENDCHAR
STARTCHAR 004B
ENCODING 75
SWIDTH 720 0
DWIDTH 10 0
BBX 9 9 0 0
BITMAP
C180
C180
C600
C600
F800
C600
C600
C180
C180
ENDCHAR
STARTCHAR 004C
ENCODING 76
SWIDTH 720 0
DWIDTH 10 0
BBX 9 9 0 0
BITMAP
C000
C000
C000
C000
C000
C000
C000
FF80
FF80
ENDCHAR
STARTCHAR 004D
ENCODING 77
SWIDTH 720 0
DWIDTH 10 0
BBX 9 9 0 0
BITMAP
C180
C180
E780
E780
D980
D980
C180
C180
C180
ENDCHAR
STARTCHAR 004E
ENCODING 78
SWIDTH 720 0
DWIDTH 10 0
BBX 9 9 0 0
BITMAP
C180
C180
E180
E180
D980
C780
C780
C180
C180
ENDCHAR
STARTCHAR 004F
ENCODING 79
SWIDTH 720 0
DWIDTH 10 0
BBX 9 9 0 0
BITMAP
3E00
3E00
C180
C180
C180
C180
C180
3E00
3E00
ENDCHAR
STARTCHAR 0050
ENCODING 80
SWIDTH 720 0
DWIDTH 10 0
BBX 9 9 0 0
BITMAP
FE00
FE00
C180
C180
C180
FF80
FE00
C000
C000
ENDCHAR
STARTCHAR 0051
ENCODING 81
SWIDTH 720 0
DWIDTH 10 0
BBX 9 9 0 0
BITMAP
3E00
3E00
C180
C180
C180
C780
C780
3F80
3F80
ENDCHAR
STARTCHAR 0052
ENCODING 82
SWIDTH 720 0
DWIDTH 10 0
BBX 9 9 0 0
BITMAP
FE00
FE00
C180
C180
C180
FF80
FE00
C180
C180
ENDCHAR
STARTCHAR 0053
ENCODING 83
SWIDTH 720 0
DWIDTH 10 0
BBX 9 9 0 0
BITMAP
3F80
3F80
C000
C000
3E00
0180
0180
FE00
FE00
ENDCHAR
STARTCHAR 0054
ENCODING 84
SWIDTH 792 0
DWIDTH 11 0
BBX 9 9 0 0
BITMAP
FF80
FF80
1800
1800
1800
1800
1800
1800
1800
ENDCHAR
STARTCHAR 0055
ENCODING 85
SWIDTH 720 0
DWIDTH 10 0
BBX 9 9 0 0
BITMAP
C180
C180
C180
C180
C180
C180
C180
3E00
3E00
ENDCHAR
STARTCHAR 0056
ENCODING 86
SWIDTH 720 0
DWIDTH 10 0
BBX 9 9 0 0
BITMAP
C180
C180
C180
C180
C180
3600
3600
0800
0800
ENDCHAR
STARTCHAR 0057
ENCODING 87
SWIDTH 720 0
DWIDTH 10 0
BBX 9 9 0 0
BITMAP
C180
C180
C980
C980
C980
C980
C980
3600
3600
ENDCHAR
STARTCHAR 0058
ENCODING 88
SWIDTH 720 0
DWIDTH 10 0
BBX 9 9 0 0
BITMAP
C180
C180
3600
3600
0800
3600
3600
C180
C180
ENDCHAR
STARTCHAR 0059
ENCODING 89
SWIDTH 720 0
DWIDTH 10 0
BBX 9 9 0 0
BITMAP
C180
C180
C180
0000
3600
0800
0800
0800
0800
ENDCHAR
STARTCHAR 005A
ENCODING 90
SWIDTH 792 0
DWIDTH 11 0
BBX 9 9 0 0
BITMAP
FF80
FF80
0600
0600
0800
3800
3000
FF80
FF80
ENDCHAR
STARTCHAR 005B
ENCODING 91
SWIDTH 360 0
DWIDTH 5 0
BBX 4 11 0 -2
BITMAP
F0
F0
C0
C0
C0
C0
C0
C0
C0
F0
F0
ENDCHAR
STARTCHAR 005C
ENCODING 92
SWIDTH 504 0
DWIDTH 7 0
BBX 5 9 0 0
BITMAP
C0
C0
C0
00
30
08
08
08
08
ENDCHAR
STARTCHAR 005D
ENCODING 93
SWIDTH 360 0
DWIDTH 5 0
BBX 4 11 0 -2
BITMAP
F0
F0
30
30
30
30
30
30
30
F0
F0
ENDCHAR
STARTCHAR 005E
ENCODING 94
SWIDTH 504 0
DWIDTH 7 0
BBX 5 4 0 7
BITMAP
30
30
C8
C8
ENDCHAR
STARTCHAR 005F
ENCODING 95
SWIDTH 792 0
DWIDTH 11 0
BBX 9 2 0 -2
BITMAP
FF80
FF80
ENDCHAR
STARTCHAR 0060
ENCODING 96
SWIDTH 360 0
DWIDTH 5 0
BBX 4 4 0 7
BITMAP
C0
C0
30
30
ENDCHAR
STARTCHAR 0061
ENCODING 97
SWIDTH 648 0
DWIDTH 9 0
BBX 7 7 0 0
BITMAP
3E
3E
C6
C6
C6
FE
FE
ENDCHAR
STARTCHAR 0062
ENCODING 98
SWIDTH 648 0
DWIDTH 9 0
BBX 7 9 0 0
BITMAP
C0
C0
F8
F8
C6
C6
C6
F8
F8
ENDCHAR
STARTCHAR 0063
ENCODING 99
SWIDTH 648 0
DWIDTH 9 0
BBX 7 7 0 0
BITMAP
3E
3E
C0
C0
C0
3E
3E
ENDCHAR
STARTCHAR 0064
ENCODING 100
SWIDTH 648 0
DWIDTH 9 0
BBX 7 9 0 0
BITMAP
06
06
3E
3E
C6
C6
C6
3E
3E
ENDCHAR
STARTCHAR 0065
ENCODING 101
SWIDTH 648 0
DWIDTH 9 0
BBX 7 7 0 0
BITMAP
38
38
C6
FE
F8
3E
3E
ENDCHAR
STARTCHAR 0066
ENCODING 102
SWIDTH 648 0
DWIDTH 9 0
BBX 7 9 0 0
BITMAP
0E
0E
30
30
FE
FE
30
30
30
ENDCHAR
STARTCHAR 0067
ENCODING 103
SWIDTH 648 0
DWIDTH 9 0
BBX 7 10 0 -3
BITMAP
3E
3E
C6
C6
C6
FE
FE
06
F8
F8
ENDCHAR
STARTCHAR 0068
ENCODING 104
SWIDTH 648 0
DWIDTH 9 0
BBX 7 9 0 0
BITMAP
C0
C0
F8
F8
C6
C6
C6
C6
C6
ENDCHAR
STARTCHAR 0069
ENCODING 105
SWIDTH 216 0
DWIDTH 3 0
BBX 2 9 0 0
BITMAP
C0
C0
00
00
C0
C0
C0
C0
C0
ENDCHAR
STARTCHAR 006A
ENCODING 106
SWIDTH 360 0
DWIDTH 5 0
BBX 4 12 0 -3
BITMAP
30
30
00
30
30
30
30
30
30
30
C0
C0
ENDCHAR
STARTCHAR 006B
ENCODING 107
SWIDTH 648 0
DWIDTH 9 0
BBX 7 9 0 0
BITMAP
C0
C0
C6
C6
D8
F8
F8
C6
C6
ENDCHAR
STARTCHAR 006C
ENCODING 108
SWIDTH 216 0
DWIDTH 3 0
BBX 2 9 0 0
BITMAP
C0
C0
C0
C0
C0
C0
C0
C0
C0
ENDCHAR
STARTCHAR 006D
ENCODING 109
SWIDTH 864 0
DWIDTH 12 0
BBX 11 7 0 0
BITMAP
D980
D980
E660
E660
C660
C660
C660
ENDCHAR
STARTCHAR 006E
ENCODING 110
SWIDTH 648 0
DWIDTH 9 0
BBX 7 7 0 0
BITMAP
D8
D8
E6
E6
C6
C6
C6
ENDCHAR
STARTCHAR 006F
ENCODING 111
SWIDTH 648 0
DWIDTH 9 0
BBX 7 7 0 0
BITMAP
38
38
C6
C6
C6
38
38
ENDCHAR
STARTCHAR 0070
ENCODING 112
SWIDTH 648 0
DWIDTH 9 0
BBX 7 10 0 -3
BITMAP
F8
FE
C6
C6
C6
F8
F8
C0
C0
C0
ENDCHAR
STARTCHAR 0071
ENCODING 113
SWIDTH 648 0
DWIDTH 9 0
BBX 7 10 0 -3
BITMAP
3E
FE
C6
C6
C6
3E
3E
06
06
06
ENDCHAR
STARTCHAR 0072
ENCODING 114
SWIDTH 648 0
DWIDTH 9 0
BBX 7 7 0 0
BITMAP
CE
CE
F0
F0
C0
C0
C0
ENDCHAR
STARTCHAR 0073
ENCODING 115
SWIDTH 648 0
DWIDTH 9 0
BBX 7 7 0 0
BITMAP
3E
3E
E0
0E
0E
F8
F8
ENDCHAR
STARTCHAR 0074
ENCODING 116
SWIDTH 648 0
DWIDTH 9 0
BBX 7 9 0 0
BITMAP
30
30
FE
FE
30
30
30
0E
0E
ENDCHAR
STARTCHAR 0075
ENCODING 117
SWIDTH 648 0
DWIDTH 9 0
BBX 7 7 0 0
BITMAP
C6
C6
C6
C6
C6
3E
3E
ENDCHAR
STARTCHAR 0076
ENCODING 118
SWIDTH 720 0
DWIDTH 10 0
BBX 9 7 0 0
BITMAP
C180
C180
C180
F780
3600
0800
0800
ENDCHAR
STARTCHAR 0077
ENCODING 119
SWIDTH 720 0
DWIDTH 10 0
BBX 9 7 0 0
BITMAP
C180
C180
C180
C980
C980
3600
3600
ENDCHAR
STARTCHAR 0078
ENCODING 120
SWIDTH 648 0
DWIDTH 9 0
BBX 7 7 0 0
BITMAP
C6
C6
38
38
38
C6
C6
ENDCHAR
STARTCHAR 0079
ENCODING 121
SWIDTH 648 0
DWIDTH 9 0
BBX 7 10 0 -3
BITMAP
C6
C6
C6
C6
C6
3E
3E
06
FE
F8
ENDCHAR
STARTCHAR 007A
ENCODING 122
SWIDTH 648 0
DWIDTH 9 0
BBX 7 7 0 0
BITMAP
FE
FE
08
38
30
FE
FE
ENDCHAR
STARTCHAR 007B
ENCODING 123
SWIDTH 504 0
DWIDTH 7 0
BBX 5 11 0 -2
BITMAP
38
38
30
C0
C0
C0
C0
30
30
38
38
ENDCHAR
STARTCHAR 007C
ENCODING 124
SWIDTH 216 0
DWIDTH 3 0
BBX 2 11 0 -2
BITMAP
C0
C0
C0
C0
C0
C0
C0
C0
C0
C0
C0
ENDCHAR
STARTCHAR 007D
ENCODING 125
SWIDTH 504 0
DWIDTH 7 0
BBX 6 11 0 -2
BITMAP
F0
F0
30
0C
0C
0C
0C
30
30
F0
F0
ENDCHAR
STARTCHAR 007E
ENCODING 126
SWIDTH 720 0
DWIDTH 10 0
BBX 9 5 0 2
BITMAP
3000
C980
C980
0600
0600
ENDCHAR
STARTCHAR 00A1
ENCODING 161
SWIDTH 216 0
DWIDTH 3 0
BBX 2 12 0 -2
BITMAP
C0
C0
00
C0
C0
C0
C0
C0
C0
C0
C0
C0
ENDCHAR
STARTCHAR 00A2
ENCODING 162
SWIDTH 504 0
DWIDTH 7 0
BBX 5 9 0 0
BITMAP
30
30
F8
F8
C0
F8
F8
30
30
ENDCHAR
STARTCHAR 00A3
ENCODING 163
SWIDTH 720 0
DWIDTH 10 0
BBX 9 11 0 0
BITMAP
3E00
3E00
C180
C180
3180
3000
F800
F800
3000
FF80
FF80
ENDCHAR
STARTCHAR 00A4
ENCODING 164
SWIDTH 720 0
DWIDTH 10 0
BBX 9 9 0 0
BITMAP
C180
C180
3E00
3E00
3600
3E00
3E00
C180
C180
ENDCHAR
STARTCHAR 00A5
ENCODING 165
SWIDTH 720 0
DWIDTH 10 0
BBX 9 11 0 0
BITMAP
C180
C180
3600
3600
0800
0800
3E00
3E00
0800
0800
0800
ENDCHAR
STARTCHAR 00A6
ENCODING 166
SWIDTH 216 0
DWIDTH 3 0
BBX 2 9 0 0
BITMAP
C0
C0
C0
00
00
C0
C0
C0
C0
ENDCHAR
STARTCHAR 00A7
ENCODING 167
SWIDTH 648 0
DWIDTH 9 0
BBX 7 12 0 -3
BITMAP
3E
3E
C0
F8
38
C6
C6
38
3E
06
F8
F8
ENDCHAR
STARTCHAR 00A8
ENCODING 168
SWIDTH 504 0
DWIDTH 7 0
BBX 5 2 0 10
BITMAP
D8
D8
ENDCHAR
STARTCHAR 00A9
ENCODING 169
SWIDTH 1008 0
DWIDTH 14 0
BBX 12 12 0 -2
BITMAP
3FE0
C010
C010
DF90
DF90
D810
D810
DF90
DF90
C010
3FE0
3FE0
ENDCHAR
STARTCHAR 00AA
ENCODING 170
SWIDTH 504 0
DWIDTH 7 0
BBX 5 7 0 7
BITMAP
78
78
D8
F8
F8
78
78
ENDCHAR
STARTCHAR 00AB
ENCODING 171
SWIDTH 864 0
DWIDTH 12 0
BBX 10 9 0 0
BITMAP
0840
0840
3300
3300
C600
3300
3300
0840
0840
ENDCHAR
STARTCHAR 00AC
ENCODING 172
SWIDTH 720 0
DWIDTH 10 0
BBX 9 5 0 4
BITMAP
FF80
FF80
0180
0180
0180
ENDCHAR
STARTCHAR 00AD
ENCODING 173
SWIDTH 648 0
DWIDTH 9 0
BBX 5 2 2 4
BITMAP
F8
F8
ENDCHAR
STARTCHAR 00AE
ENCODING 174
SWIDTH 1008 0
DWIDTH 14 0
BBX 12 12 0 -2
BITMAP
3FE0
C010
C010
DF90
DF90
DE10
DE10
D990
D990
C010
3FE0
3FE0
ENDCHAR
STARTCHAR 00AF
ENCODING 175
SWIDTH 792 0
DWIDTH 11 0
BBX 9 2 0 10
BITMAP
FF80
FF80
ENDCHAR
STARTCHAR 00B0
ENCODING 176
SWIDTH 648 0
DWIDTH 9 0
BBX 7 7 0 5
BITMAP
38
38
C6
C6
C6
38
38
ENDCHAR
STARTCHAR 00B1
ENCODING 177
SWIDTH 648 0
DWIDTH 9 0
BBX 5 9 2 0
BITMAP
30
30
F8
F8
30
00
00
F8
F8
ENDCHAR
STARTCHAR 00B2
ENCODING 178
SWIDTH 648 0
DWIDTH 9 0
BBX 7 9 0 3
BITMAP
38
38
C6
C6
08
30
30
FE
FE
ENDCHAR
STARTCHAR 00B3
ENCODING 179
SWIDTH 648 0
DWIDTH 9 0
BBX 7 9 0 3
BITMAP
F8
F8
06
06
38
06
06
F8
F8
ENDCHAR
STARTCHAR 00B4
ENCODING 180
SWIDTH 360 0
DWIDTH 5 0
BBX 4 4 0 9
BITMAP
30
30
C0
C0
ENDCHAR
STARTCHAR 00B5
ENCODING 181
SWIDTH 720 0
DWIDTH 10 0
BBX 9 10 0 -3
BITMAP
C180
C180
C180
E780
E780
D980
D980
C000
C000
C000
ENDCHAR
STARTCHAR 00B6
ENCODING 182
SWIDTH 936 0
DWIDTH 13 0
BBX 11 12 0 -3
BITMAP
3FE0
3FE0
FD80
FD80
FD80
FD80
3D80
3D80
0D80
0D80
0D80
0D80
ENDCHAR
STARTCHAR 00B7
ENCODING 183
SWIDTH 648 0
DWIDTH 9 0
BBX 5 5 2 2
BITMAP
F8
F8
F8
F8
F8
ENDCHAR
STARTCHAR 00B8
ENCODING 184
SWIDTH 576 0
DWIDTH 8 0
BBX 6 5 1 -3
BITMAP
30
30
0C
FC
FC
ENDCHAR
STARTCHAR 00B9
ENCODING 185
SWIDTH 360 0
DWIDTH 5 0
BBX 4 9 0 3
BITMAP
30
30
F0
F0
30
30
30
30
30
ENDCHAR
STARTCHAR 00BA
ENCODING 186
SWIDTH 648 0
DWIDTH 9 0
BBX 7 9 0 3
BITMAP
38
38
C6
C6
C6
C6
C6
38
38
ENDCHAR
STARTCHAR 00BB
ENCODING 187
SWIDTH 864 0
DWIDTH 12 0
BBX 10 9 0 0
BITMAP
C600
C600
3300
3300
0840
3300
3300
C600
C600
ENDCHAR
STARTCHAR 00BC
ENCODING 188
SWIDTH 1008 0
DWIDTH 14 0
BBX 12 14 0 -4
BITMAP
3010
F060
F060
3180
3180
3600
3600
0870
3190
3190
C1F0
C1F0
0010
0010
ENDCHAR
STARTCHAR 00BD
ENCODING 189
SWIDTH 1008 0
DWIDTH 14 0
BBX 12 14 0 -3
BITMAP
3010
3010
F060
3180
3180
3600
3600
09E0
09E0
3010
C060
C060
01F0
01F0
ENDCHAR
STARTCHAR 00BE
ENCODING 190
SWIDTH 1008 0
DWIDTH 14 0
BBX 12 14 0 -4
BITMAP
F810
3060
3060
0980
0980
F600
F600
0870
3190
3190
C1F0
C1F0
0010
0010
ENDCHAR
STARTCHAR 00BF
ENCODING 191
SWIDTH 720 0
DWIDTH 10 0
BBX 9 13 0 -2
BITMAP
0800
0800
0000
0000
0800
0800
0800
3980
3180
C180
C180
3E00
3E00
ENDCHAR
STARTCHAR 00C0
ENCODING 192
SWIDTH 720 0
DWIDTH 10 0
BBX 9 14 0 0
BITMAP
3000
3000
0800
0800
0000
3E00
3E00
C180
C180
C180
FF80
FF80
C180
C180
ENDCHAR
STARTCHAR 00C1
ENCODING 193
SWIDTH 720 0
DWIDTH 10 0
BBX 9 14 0 0
BITMAP
0600
0600
1800
1800
0000
3E00
3E00
C180
C180
C180
FF80
FF80
C180
C180
ENDCHAR
STARTCHAR 00C2
ENCODING 194
SWIDTH 720 0
DWIDTH 10 0
BBX 9 14 0 0
BITMAP
0800
0800
3600
3600
0000
3E00
3E00
C180
C180
C180
FF80
FF80
C180
C180
ENDCHAR
STARTCHAR 00C3
ENCODING 195
SWIDTH 720 0
DWIDTH 10 0
BBX 9 14 0 0
BITMAP
0980
0980
3600
3600
0000
3E00
3E00
C180
C180
C180
FF80
FF80
C180
C180
ENDCHAR
STARTCHAR 00C4
ENCODING 196
SWIDTH 720 0
DWIDTH 10 0
BBX 9 12 0 0
BITMAP
3600
3600
0000
3E00
3E00
C180
C180
C180
FF80
FF80
C180
C180
ENDCHAR
STARTCHAR 00C5
ENCODING 197
SWIDTH 720 0
DWIDTH 10 0
BBX 9 14 0 0
BITMAP
0800
0800
3600
3600
0800
3E00
3E00
C180
C180
C180
FF80
FF80
C180
C180
ENDCHAR
STARTCHAR 00C6
ENCODING 198
SWIDTH 1296 0
DWIDTH 18 0
BBX 16 9 0 0
BITMAP
0FFF
0FFF
3180
3180
C1FC
FF80
FF80
C1FF
C1FF
ENDCHAR
STARTCHAR 00C7
ENCODING 199
SWIDTH 720 0
DWIDTH 10 0
BBX 9 12 0 -3
BITMAP
3E00
3E00
C180
C180
C000
C180
C180
3E00
3E00
0600
3E00
3E00
ENDCHAR
STARTCHAR 00C8
ENCODING 200
SWIDTH 720 0
DWIDTH 10 0
BBX 9 14 0 0
BITMAP
3000
3000
0800
0800
0000
FF80
FF80
C000
C000
FE00
FE00
C000
FF80
FF80
ENDCHAR
STARTCHAR 00C9
ENCODING 201
SWIDTH 720 0
DWIDTH 10 0
BBX 9 14 0 0
BITMAP
0600
0600
1800
1800
0000
FF80
FF80
C000
C000
FE00
FE00
C000
FF80
FF80
ENDCHAR
STARTCHAR 00CA
ENCODING 202
SWIDTH 720 0
DWIDTH 10 0
BBX 9 14 0 0
BITMAP
0800
0800
3600
3600
0000
FF80
FF80
C000
C000
FE00
FE00
C000
FF80
FF80
ENDCHAR
STARTCHAR 00CB
ENCODING 203
SWIDTH 720 0
DWIDTH 10 0
BBX 9 12 0 0
BITMAP
3600
3600
0000
FF80
FF80
C000
C000
FE00
FE00
C000
FF80
FF80
ENDCHAR
STARTCHAR 00CC
ENCODING 204
SWIDTH 504 0
DWIDTH 7 0
BBX 5 14 0 0
BITMAP
C0
C0
30
30
00
F8
F8
30
30
30
30
30
F8
F8
ENDCHAR
STARTCHAR 00CD
ENCODING 205
SWIDTH 504 0
DWIDTH 7 0
BBX 5 14 0 0
BITMAP
08
08
30
30
00
F8
F8
30
30
30
30
30
F8
F8
ENDCHAR
STARTCHAR 00CE
ENCODING 206
SWIDTH 504 0
DWIDTH 7 0
BBX 5 14 0 0
BITMAP
30
30
C8
C8
00
F8
F8
30
30
30
30
30
F8
F8
ENDCHAR
STARTCHAR 00CF
ENCODING 207
SWIDTH 504 0
DWIDTH 7 0
BBX 5 12 0 0
BITMAP
C8
C8
00
F8
F8
30
30
30
30
30
F8
F8
ENDCHAR
STARTCHAR 00D0
ENCODING 208
SWIDTH 720 0
DWIDTH 10 0
BBX 9 9 0 0
BITMAP
3E00
3E00
3180
3180
F980
F980
3180
3E00
3E00
ENDCHAR
STARTCHAR 00D1
ENCODING 209
SWIDTH 720 0
DWIDTH 10 0
BBX 9 14 0 0
BITMAP
0980
0980
3600
3600
0000
C180
C180
F180
F180
C980
C780
C780
C180
C180
ENDCHAR
STARTCHAR 00D2
ENCODING 210
SWIDTH 720 0
DWIDTH 10 0
BBX 9 14 0 0
BITMAP
3000
3000
0800
0800
0000
3E00
3E00
C180
C180
C180
C180
C180
3E00
3E00
ENDCHAR
STARTCHAR 00D3
ENCODING 211
SWIDTH 720 0
DWIDTH 10 0
BBX 9 14 0 0
BITMAP
0600
0600
1800
1800
0000
3E00
3E00
C180
C180
C180
C180
C180
3E00
3E00
ENDCHAR
STARTCHAR 00D4
ENCODING 212
SWIDTH 720 0
DWIDTH 10 0
BBX 9 14 0 0
BITMAP
0800
0800
3600
3600
0000
3E00
3E00
C180
C180
C180
C180
C180
3E00
3E00
ENDCHAR
STARTCHAR 00D5
ENCODING 213
SWIDTH 720 0
DWIDTH 10 0
BBX 9 14 0 0
BITMAP
3000
3000
C980
C980
0600
3E00
3E00
C180
C180
C180
C180
C180
3E00
3E00
ENDCHAR
STARTCHAR 00D6
ENCODING 214
SWIDTH 720 0
DWIDTH 10 0
BBX 9 12 0 0
BITMAP
3600
3600
0000
3E00
3E00
C180
C180
C180
C180
C180
3E00
3E00
ENDCHAR
STARTCHAR 00D7
ENCODING 215
SWIDTH 504 0
DWIDTH 7 0
BBX 5 5 0 2
BITMAP
C8
C8
30
C8
C8
ENDCHAR
STARTCHAR 00D8
ENCODING 216
SWIDTH 720 0
DWIDTH 10 0
BBX 9 9 0 0
BITMAP
3F80
3F80
C780
C780
D980
F980
E180
FE00
FE00
ENDCHAR
STARTCHAR 00D9
ENCODING 217
SWIDTH 720 0
DWIDTH 10 0
BBX 9 14 0 0
BITMAP
3000
3000
0800
0800
0000
C180
C180
C180
C180
C180
C180
C180
3E00
3E00
ENDCHAR
STARTCHAR 00DA
ENCODING 218
SWIDTH 720 0
DWIDTH 10 0
BBX 9 14 0 0
BITMAP
0600
0600
1800
1800
0000
C180
C180
C180
C180
C180
C180
C180
3E00
3E00
ENDCHAR
STARTCHAR 00DB
ENCODING 219
SWIDTH 720 0
DWIDTH 10 0
BBX 9 14 0 0
BITMAP
0800
0800
3600
3600
0000
C180
C180
C180
C180
C180
C180
C180
3E00
3E00
ENDCHAR
STARTCHAR 00DC
ENCODING 220
SWIDTH 720 0
DWIDTH 10 0
BBX 9 12 0 0
BITMAP
3600
3600
0000
C180
C180
C180
C180
C180
C180
C180
3E00
3E00
ENDCHAR
STARTCHAR 00DD
ENCODING 221
SWIDTH 720 0
DWIDTH 10 0
BBX 9 14 0 0
BITMAP
0600
0600
0800
0800
0000
C180
C180
C180
0000
3600
0800
0800
0800
0800
ENDCHAR
STARTCHAR 00DE
ENCODING 222
SWIDTH 720 0
DWIDTH 10 0
BBX 9 9 0 0
BITMAP
C000
C000
FE00
FE00
C180
FE00
FE00
C000
C000
ENDCHAR
STARTCHAR 00DF
ENCODING 223
SWIDTH 648 0
DWIDTH 9 0
BBX 7 9 0 0
BITMAP
38
38
C6
C6
D8
C6
C6
D8
D8
ENDCHAR
STARTCHAR 00E0
ENCODING 224
SWIDTH 648 0
DWIDTH 9 0
BBX 7 12 0 0
BITMAP
30
08
08
00
00
3E
3E
C6
C6
C6
FE
FE
ENDCHAR
STARTCHAR 00E1
ENCODING 225
SWIDTH 648 0
DWIDTH 9 0
BBX 7 12 0 0
BITMAP
08
30
30
00
00
3E
3E
C6
C6
C6
FE
FE
ENDCHAR
STARTCHAR 00E2
ENCODING 226
SWIDTH 648 0
DWIDTH 9 0
BBX 7 12 0 0
BITMAP
08
36
36
00
00
3E
3E
C6
C6
C6
FE
FE
ENDCHAR
STARTCHAR 00E3
ENCODING 227
SWIDTH 648 0
DWIDTH 9 0
BBX 7 12 0 0
BITMAP
36
C8
C8
00
00
3E
3E
C6
C6
C6
FE
FE
ENDCHAR
STARTCHAR 00E4
ENCODING 228
SWIDTH 648 0
DWIDTH 9 0
BBX 7 11 0 0
BITMAP
36
36
00
00
3E
3E
C6
C6
C6
FE
FE
ENDCHAR
STARTCHAR 00E5
ENCODING 229
SWIDTH 648 0
DWIDTH 9 0
BBX 7 12 0 0
BITMAP
08
36
36
08
08
3E
3E
C6
C6
C6
FE
FE
ENDCHAR
STARTCHAR 00E6
ENCODING 230
SWIDTH 1008 0
DWIDTH 14 0
BBX 12 9 0 0
BITMAP
F9C0
F9C0
0630
0630
3FF0
FFF0
C600
F9F0
F9F0
ENDCHAR
STARTCHAR 00E7
ENCODING 231
SWIDTH 648 0
DWIDTH 9 0
BBX 7 10 0 -3
BITMAP
3E
FE
C0
C0
C0
3E
3E
18
38
38
ENDCHAR
STARTCHAR 00E8
ENCODING 232
SWIDTH 648 0
DWIDTH 9 0
BBX 7 12 0 0
BITMAP
30
08
08
00
00
38
38
C6
FE
F8
3E
3E
ENDCHAR
STARTCHAR 00E9
ENCODING 233
SWIDTH 648 0
DWIDTH 9 0
BBX 7 12 0 0
BITMAP
08
30
30
00
00
38
38
C6
FE
F8
3E
3E
ENDCHAR
STARTCHAR 00EA
ENCODING 234
SWIDTH 648 0
DWIDTH 9 0
BBX 7 12 0 0
BITMAP
08
36
36
00
00
38
38
C6
FE
F8
3E
3E
ENDCHAR
STARTCHAR 00EB
ENCODING 235
SWIDTH 648 0
DWIDTH 9 0
BBX 7 11 0 0
BITMAP
36
36
00
00
38
38
C6
FE
F8
3E
3E
ENDCHAR
STARTCHAR 00EC
ENCODING 236
SWIDTH 360 0
DWIDTH 5 0
BBX 4 12 0 0
BITMAP
C0
30
30
00
00
30
30
30
30
30
30
30
ENDCHAR
STARTCHAR 00ED
ENCODING 237
SWIDTH 360 0
DWIDTH 5 0
BBX 4 12 0 0
BITMAP
30
C0
C0
00
00
C0
C0
C0
C0
C0
C0
C0
ENDCHAR
STARTCHAR 00EE
ENCODING 238
SWIDTH 504 0
DWIDTH 7 0
BBX 5 12 0 0
BITMAP
30
C8
C8
00
00
30
30
30
30
30
30
30
ENDCHAR
STARTCHAR 00EF
ENCODING 239
SWIDTH 504 0
DWIDTH 7 0
BBX 5 11 0 0
BITMAP
C8
C8
00
00
30
30
30
30
30
30
30
ENDCHAR
STARTCHAR 00F0
ENCODING 240
SWIDTH 648 0
DWIDTH 9 0
BBX 7 11 0 0
BITMAP
30
30
08
08
3E
3E
C6
C6
C6
38
38
ENDCHAR
STARTCHAR 00F1
ENCODING 241
SWIDTH 648 0
DWIDTH 9 0
BBX 7 12 0 0
BITMAP
36
C8
C8
00
00
C8
C8
F6
F6
C6
C6
C6
ENDCHAR
STARTCHAR 00F2
ENCODING 242
SWIDTH 648 0
DWIDTH 9 0
BBX 7 12 0 0
BITMAP
30
08
08
00
00
38
38
C6
C6
C6
38
38
ENDCHAR
STARTCHAR 00F3
ENCODING 243
SWIDTH 648 0
DWIDTH 9 0
BBX 7 12 0 0
BITMAP
08
30
30
00
00
38
38
C6
C6
C6
38
38
ENDCHAR
STARTCHAR 00F4
ENCODING 244
SWIDTH 648 0
DWIDTH 9 0
BBX 7 12 0 0
BITMAP
38
C6
C6
00
00
38
38
C6
C6
C6
38
38
ENDCHAR
STARTCHAR 00F5
ENCODING 245
SWIDTH 648 0
DWIDTH 9 0
BBX 7 12 0 0
BITMAP
36
C8
C8
00
00
38
38
C6
C6
C6
38
38
ENDCHAR
STARTCHAR 00F6
ENCODING 246
SWIDTH 648 0
DWIDTH 9 0
BBX 7 11 0 0
BITMAP
36
36
00
00
38
38
C6
C6
C6
38
38
ENDCHAR
STARTCHAR 00F7
ENCODING 247
SWIDTH 792 0
DWIDTH 11 0
BBX 9 9 0 0
BITMAP
1800
1800
0000
0000
FF80
FF80
0000
1800
1800
ENDCHAR
STARTCHAR 00F8
ENCODING 248
SWIDTH 648 0
DWIDTH 9 0
BBX 7 7 0 0
BITMAP
3E
3E
DE
FE
F6
F8
F8
ENDCHAR
STARTCHAR 00F9
ENCODING 249
SWIDTH 648 0
DWIDTH 9 0
BBX 7 12 0 0
BITMAP
30
08
08
00
00
C6
C6
C6
C6
C6
3E
3E
ENDCHAR
STARTCHAR 00FA
ENCODING 250
SWIDTH 648 0
DWIDTH 9 0
BBX 7 12 0 0
BITMAP
08
30
30
00
00
C6
C6
C6
C6
C6
3E
3E
ENDCHAR
STARTCHAR 00FB
ENCODING 251
SWIDTH 648 0
DWIDTH 9 0
BBX 7 12 0 0
BITMAP
08
36
36
00
00
C6
C6
C6
C6
C6
3E
3E
ENDCHAR
STARTCHAR 00FC
ENCODING 252
SWIDTH 648 0
DWIDTH 9 0
BBX 7 11 0 0
BITMAP
36
36
00
00
C6
C6
C6
C6
C6
3E
3E
ENDCHAR
STARTCHAR 00FD
ENCODING 253
SWIDTH 648 0
DWIDTH 9 0
BBX 7 14 0 -3
BITMAP
08
08
30
30
00
C6
C6
C6
C6
3E
3E
06
F8
F8
ENDCHAR
STARTCHAR 00FE
ENCODING 254
SWIDTH 648 0
DWIDTH 9 0
BBX 7 10 0 -3
BITMAP
C0
F8
F8
C6
C6
C6
FE
F8
C0
C0
ENDCHAR
STARTCHAR 00FF
ENCODING 255
SWIDTH 648 0
DWIDTH 9 0
BBX 7 12 0 -3
BITMAP
36
36
00
C6
C6
C6
C6
3E
3E
06
F8
F8
ENDCHAR
STARTCHAR 0152
ENCODING 338
SWIDTH 1152 0
DWIDTH 16 0
BBX 14 9 0 0
BITMAP
39FC
39FC
C700
C700
C1FC
C700
C700
39FC
39FC
ENDCHAR
STARTCHAR 0153
ENCODING 339
SWIDTH 1008 0
DWIDTH 14 0
BBX 12 7 0 0
BITMAP
39C0
39C0
C7F0
C7F0
C600
39F0
39F0
ENDCHAR
STARTCHAR 0178
ENCODING 376
SWIDTH 720 0
DWIDTH 10 0
BBX 9 12 0 0
BITMAP
3600
3600
0000
C180
C180
C180
0000
3600
0800
0800
0800
0800
ENDCHAR
STARTCHAR 018F
ENCODING 399
SWIDTH 720 0
DWIDTH 10 0
BBX 9 9 0 0
BITMAP
FE00
FE00
0180
0180
FF80
FF80
C180
3E00
3E00
ENDCHAR
STARTCHAR 0192
ENCODING 402
SWIDTH 720 0
DWIDTH 10 0
BBX 8 12 0 -3
BITMAP
07
07
18
3E
3E
18
18
18
18
18
F8
E0
ENDCHAR
STARTCHAR 0391
ENCODING 913
SWIDTH 720 0
DWIDTH 10 0
BBX 9 9 0 0
BITMAP
3E00
3E00
C180
C180
C180
FF80
FF80
C180
C180
ENDCHAR
STARTCHAR 0392
ENCODING 914
SWIDTH 720 0
DWIDTH 10 0
BBX 9 9 0 0
BITMAP
FE00
FE00
C180
C180
FE00
C180
C180
FE00
FE00
ENDCHAR
STARTCHAR 0393
ENCODING 915
SWIDTH 648 0
DWIDTH 9 0
BBX 7 9 0 0
BITMAP
FE
FE
C0
C0
C0
C0
C0
C0
C0
ENDCHAR
STARTCHAR 0394
ENCODING 916
SWIDTH 720 0
DWIDTH 10 0
BBX 9 9 0 0
BITMAP
0800
0800
3600
3600
3600
3600
C180
FF80
FF80
ENDCHAR
STARTCHAR 0395
ENCODING 917
SWIDTH 720 0
DWIDTH 10 0
BBX 9 9 0 0
BITMAP
FF80
FF80
C000
C000
FF80
FF80
C000
FF80
FF80
ENDCHAR
STARTCHAR 0396
ENCODING 918
SWIDTH 792 0
DWIDTH 11 0
BBX 9 9 0 0
BITMAP
FF80
FF80
0600
0600
0800
3800
3000
FF80
FF80
ENDCHAR
STARTCHAR 0397
ENCODING 919
SWIDTH 720 0
DWIDTH 10 0
BBX 9 9 0 0
BITMAP
C180
C180
C180
C180
FF80
FF80
C180
C180
C180
ENDCHAR
STARTCHAR 0398
ENCODING 920
SWIDTH 720 0
DWIDTH 10 0
BBX 9 9 0 0
BITMAP
3E00
3E00
C180
C180
DD80
DD80
C180
3E00
3E00
ENDCHAR
STARTCHAR 0399
ENCODING 921
SWIDTH 216 0
DWIDTH 3 0
BBX 2 9 0 0
BITMAP
C0
C0
C0
C0
C0
C0
C0
C0
C0
ENDCHAR
STARTCHAR 039A
ENCODING 922
SWIDTH 720 0
DWIDTH 10 0
BBX 9 9 0 0
BITMAP
C180
C180
C600
C600
D800
E600
E600
C180
C180
ENDCHAR
STARTCHAR 039B
ENCODING 923
SWIDTH 720 0
DWIDTH 10 0
BBX 9 9 0 0
BITMAP
0800
0800
3600
3600
3600
F780
C180
C180
C180
ENDCHAR
STARTCHAR 039C
ENCODING 924
SWIDTH 720 0
DWIDTH 10 0
BBX 9 9 0 0
BITMAP
C180
C180
E780
E780
D980
D980
C180
C180
C180
ENDCHAR
STARTCHAR 039D
ENCODING 925
SWIDTH 720 0
DWIDTH 10 0
BBX 9 9 0 0
BITMAP
C180
C180
E180
E180
D980
C780
C780
C180
C180
ENDCHAR
STARTCHAR 039E
ENCODING 926
SWIDTH 792 0
DWIDTH 11 0
BBX 9 9 0 0
BITMAP
FF80
FF80
0000
0000
3E00
3E00
0000
FF80
FF80
ENDCHAR
STARTCHAR 039F
ENCODING 927
SWIDTH 720 0
DWIDTH 10 0
BBX 9 9 0 0
BITMAP
3E00
3E00
C180
C180
C180
C180
C180
3E00
3E00
ENDCHAR
STARTCHAR 03A0
ENCODING 928
SWIDTH 720 0
DWIDTH 10 0
BBX 9 9 0 0
BITMAP
FF80
FF80
C180
C180
C180
C180
C180
C180
C180
ENDCHAR
STARTCHAR 03A1
ENCODING 929
SWIDTH 720 0
DWIDTH 10 0
BBX 9 9 0 0
BITMAP
FE00
FE00
C180
C180
FE00
FE00
C000
C000
C000
ENDCHAR
STARTCHAR 03A3
ENCODING 931
SWIDTH 792 0
DWIDTH 11 0
BBX 9 9 0 0
BITMAP
FF80
FF80
3000
3000
0800
3800
3000
FF80
FF80
ENDCHAR
STARTCHAR 03A4
ENCODING 932
SWIDTH 792 0
DWIDTH 11 0
BBX 9 9 0 0
BITMAP
FF80
FF80
1800
1800
1800
1800
1800
1800
1800
ENDCHAR
STARTCHAR 03A5
ENCODING 933
SWIDTH 720 0
DWIDTH 10 0
BBX 9 9 0 0
BITMAP
C180
C180
3600
3600
0800
0800
0800
0800
0800
ENDCHAR
STARTCHAR 03A6
ENCODING 934
SWIDTH 720 0
DWIDTH 10 0
BBX 9 9 0 0
BITMAP
1800
1800
3E00
3E00
D980
3E00
3E00
1800
1800
ENDCHAR
STARTCHAR 03A7
ENCODING 935
SWIDTH 720 0
DWIDTH 10 0
BBX 9 9 0 0
BITMAP
C180
C180
3600
3600
0800
3600
3600
C180
C180
ENDCHAR
STARTCHAR 03A8
ENCODING 936
SWIDTH 720 0
DWIDTH 10 0
BBX 9 9 0 0
BITMAP
D980
D980
D980
D980
D980
3E00
3E00
1800
1800
ENDCHAR
STARTCHAR 03A9
ENCODING 937
SWIDTH 720 0
DWIDTH 10 0
BBX 9 9 0 0
BITMAP
3E00
3E00
C180
C180
C180
C180
3600
F780
F780
ENDCHAR
STARTCHAR 03B1
ENCODING 945
SWIDTH 720 0
DWIDTH 10 0
BBX 9 7 0 0
BITMAP
3980
3980
C600
C600
C600
3980
3980
ENDCHAR
STARTCHAR 03B2
ENCODING 946
SWIDTH 648 0
DWIDTH 9 0
BBX 7 10 0 -3
BITMAP
38
38
D8
D8
C6
FE
FE
C0
C0
C0
ENDCHAR
STARTCHAR 03B3
ENCODING 947
SWIDTH 720 0
DWIDTH 10 0
BBX 9 10 0 -3
BITMAP
C180
F780
3600
3600
3600
0800
0800
0800
0800
0800
ENDCHAR
STARTCHAR 03B4
ENCODING 948
SWIDTH 648 0
DWIDTH 9 0
BBX 7 11 0 0
BITMAP
FE
FE
30
30
38
38
C6
C6
C6
38
38
ENDCHAR
STARTCHAR 03B5
ENCODING 949
SWIDTH 648 0
DWIDTH 9 0
BBX 7 9 0 0
BITMAP
3E
3E
C0
C0
38
C0
C0
3E
3E
ENDCHAR
STARTCHAR 03B6
ENCODING 950
SWIDTH 504 0
DWIDTH 7 0
BBX 5 12 0 -3
BITMAP
F8
F8
30
C0
C0
C0
C0
30
38
08
30
30
ENDCHAR
STARTCHAR 03B7
ENCODING 951
SWIDTH 648 0
DWIDTH 9 0
BBX 7 10 0 -3
BITMAP
D8
D8
E6
E6
C6
C6
C6
06
06
06
ENDCHAR
STARTCHAR 03B8
ENCODING 952
SWIDTH 504 0
DWIDTH 7 0
BBX 5 9 0 0
BITMAP
30
30
C8
C8
F8
F8
C8
30
30
ENDCHAR
STARTCHAR 03B9
ENCODING 953
SWIDTH 216 0
DWIDTH 3 0
BBX 2 7 0 0
BITMAP
C0
C0
C0
C0
C0
C0
C0
ENDCHAR
STARTCHAR 03BA
ENCODING 954
SWIDTH 648 0
DWIDTH 9 0
BBX 7 7 0 0
BITMAP
C6
C6
D8
F8
F8
C6
C6
ENDCHAR
STARTCHAR 03BB
ENCODING 955
SWIDTH 648 0
DWIDTH 9 0
BBX 7 9 0 0
BITMAP
30
30
08
08
38
3E
36
C6
C6
ENDCHAR
STARTCHAR 03BC
ENCODING 956
SWIDTH 720 0
DWIDTH 10 0
BBX 9 10 0 -3
BITMAP
C180
C180
C180
E780
E780
D980
D980
C000
C000
C000
ENDCHAR
STARTCHAR 03BD
ENCODING 957
SWIDTH 720 0
DWIDTH 10 0
BBX 9 7 0 0
BITMAP
C180
C180
3600
3600
3600
0800
0800
ENDCHAR
STARTCHAR 03BE
ENCODING 958
SWIDTH 504 0
DWIDTH 7 0
BBX 5 14 0 -3
BITMAP
30
30
C0
C0
30
F0
C0
C0
C0
30
38
08
30
30
ENDCHAR
STARTCHAR 03BF
ENCODING 959
SWIDTH 648 0
DWIDTH 9 0
BBX 7 7 0 0
BITMAP
38
38
C6
C6
C6
38
38
ENDCHAR
STARTCHAR 03C0
ENCODING 960
SWIDTH 792 0
DWIDTH 11 0
BBX 9 7 0 0
BITMAP
FF80
FF80
3200
3200
3200
3200
3200
ENDCHAR
STARTCHAR 03C1
ENCODING 961
SWIDTH 648 0
DWIDTH 9 0
BBX 7 10 0 -3
BITMAP
38
38
C6
C6
C6
F8
F8
C0
C0
C0
ENDCHAR
STARTCHAR 03C2
ENCODING 962
SWIDTH 504 0
DWIDTH 7 0
BBX 5 10 0 -3
BITMAP
38
F8
C0
C0
C0
38
38
08
30
30
ENDCHAR
STARTCHAR 03C3
ENCODING 963
SWIDTH 648 0
DWIDTH 9 0
BBX 7 7 0 0
BITMAP
3E
3E
C6
C6
C6
38
38
ENDCHAR
STARTCHAR 03C4
ENCODING 964
SWIDTH 504 0
DWIDTH 7 0
BBX 5 7 0 0
BITMAP
F8
F8
30
30
30
30
30
ENDCHAR
STARTCHAR 03C5
ENCODING 965
SWIDTH 504 0
DWIDTH 7 0
BBX 5 7 0 0
BITMAP
C8
C8
C8
C8
C8
30
30
ENDCHAR
STARTCHAR 03C6
ENCODING 966
SWIDTH 720 0
DWIDTH 10 0
BBX 9 10 0 -3
BITMAP
DE00
DF80
D980
D980
D980
3E00
3E00
1800
1800
1800
ENDCHAR
STARTCHAR 03C7
ENCODING 967
SWIDTH 648 0
DWIDTH 9 0
BBX 7 10 0 -3
BITMAP
C6
C6
C6
FE
38
38
38
C6
C6
C6
ENDCHAR
STARTCHAR 03C8
ENCODING 968
SWIDTH 720 0
DWIDTH 10 0
BBX 9 10 0 -3
BITMAP
D980
D980
D980
D980
D980
3E00
3E00
1800
1800
1800
ENDCHAR
STARTCHAR 03C9
ENCODING 969
SWIDTH 720 0
DWIDTH 10 0
BBX 9 7 0 0
BITMAP
3600
F780
C180
C980
C980
3600
3600
ENDCHAR
STARTCHAR 2014
ENCODING 8212
SWIDTH 792 0
DWIDTH 11 0
BBX 9 2 0 4
BITMAP
FF80
FF80
ENDCHAR
STARTCHAR 2018
ENCODING 8216
SWIDTH 360 0
DWIDTH 5 0
BBX 4 4 0 7
BITMAP
30
30
C0
C0
ENDCHAR
STARTCHAR 2019
ENCODING 8217
SWIDTH 360 0
DWIDTH 5 0
BBX 4 4 0 7
BITMAP
C0
C0
30
30
ENDCHAR
STARTCHAR 201A
ENCODING 8218
SWIDTH 360 0
DWIDTH 5 0
BBX 4 4 0 -2
BITMAP
30
30
C0
C0
ENDCHAR
STARTCHAR 201B
ENCODING 8219
SWIDTH 360 0
DWIDTH 5 0
BBX 4 4 0 7
BITMAP
C0
C0
30
30
ENDCHAR
STARTCHAR 201C
ENCODING 8220
SWIDTH 648 0
DWIDTH 9 0
BBX 7 4 0 7
BITMAP
36
36
C8
C8
ENDCHAR
STARTCHAR 201D
ENCODING 8221
SWIDTH 648 0
DWIDTH 9 0
BBX 7 4 0 7
BITMAP
C8
C8
36
36
ENDCHAR
STARTCHAR 201E
ENCODING 8222
SWIDTH 720 0
DWIDTH 10 0
BBX 9 4 0 -2
BITMAP
3180
3180
C600
C600
ENDCHAR
STARTCHAR 2020
ENCODING 8224
SWIDTH 504 0
DWIDTH 7 0
BBX 5 9 0 0
BITMAP
30
30
F8
F8
30
30
30
30
30
ENDCHAR
STARTCHAR 2026
ENCODING 8230
SWIDTH 720 0
DWIDTH 10 0
BBX 8 2 0 0
BITMAP
D9
D9
ENDCHAR
STARTCHAR 2039
ENCODING 8249
SWIDTH 504 0
DWIDTH 7 0
BBX 5 9 0 0
BITMAP
08
08
30
30
C0
30
30
08
08
ENDCHAR
STARTCHAR 203A
ENCODING 8250
SWIDTH 504 0
DWIDTH 7 0
BBX 5 9 0 0
BITMAP
C0
C0
30
30
08
30
30
C0
C0
ENDCHAR
STARTCHAR 20AC
ENCODING 8364
SWIDTH 864 0
DWIDTH 12 0
BBX 11 13 0 -2
BITMAP
0F80
0F80
3060
3060
FE00
FE00
3000
FE00
FE00
3060
3060
0F80
0F80
ENDCHAR
STARTCHAR 2122
ENCODING 8482
SWIDTH 1224 0
DWIDTH 17 0
BBX 16 7 0 3
BITMAP
FD83
FD83
31EF
319B
319B
3183
3183
ENDCHAR
STARTCHAR FB01
ENCODING 64257
SWIDTH 720 0
DWIDTH 10 0
BBX 9 9 0 0
BITMAP
0980
0980
3000
3000
F980
F980
3180
3180
3180
ENDCHAR
STARTCHAR FB02
ENCODING 64258
SWIDTH 720 0
DWIDTH 10 0
BBX 9 9 0 0
BITMAP
0980
0980
3180
3180
F980
F980
3180
3180
3180
ENDCHAR
ENDFONT
